<?xml version="1.0" standalone="no"?>
<!DOCTYPE svg PUBLIC "-//W3C//DTD SVG 20010904//EN"
 "http://www.w3.org/TR/2001/REC-SVG-20010904/DTD/svg10.dtd">
<svg version="1.0" xmlns="http://www.w3.org/2000/svg"
 width="4000.000000pt" height="4000.000000pt" viewBox="0 0 4000.000000 4000.000000"
 preserveAspectRatio="xMidYMid meet">

<g transform="translate(0.000000,4000.000000) scale(0.100000,-0.100000)"
fill="#FFFFFF" stroke="none">
<path d="M28637 35838 c11 -64 63 -254 92 -345 259 -793 806 -1404 1531 -1712
141 -60 220 -83 220 -64 0 27 -39 267 -59 363 -180 855 -593 1423 -1217 1675
-152 61 -398 115 -528 115 l-45 0 6 -32z"/>
<path d="M11175 35805 c-806 -113 -1391 -771 -1595 -1797 -26 -132 -58 -347
-52 -352 12 -13 283 98 412 167 708 382 1187 1010 1396 1827 19 74 34 143 34
152 0 15 -9 18 -52 17 -29 -1 -93 -7 -143 -14z"/>
<path d="M32081 34243 c-18 -34 -79 -199 -109 -293 -64 -200 -98 -345 -129
-555 -27 -182 -25 -541 5 -739 48 -324 136 -595 283 -876 55 -105 158 -269
208 -330 l20 -25 80 165 c177 360 280 682 323 1010 16 126 16 413 -1 525 -53
364 -207 690 -441 938 -81 85 -208 197 -224 197 -3 0 -9 -8 -15 -17z"/>
<path d="M7821 34143 c-200 -160 -383 -421 -484 -693 -138 -372 -143 -852 -11
-1295 14 -49 30 -104 35 -122 33 -111 148 -383 240 -566 l45 -88 21 23 c52 57
161 237 238 393 123 249 205 509 252 800 26 159 26 632 0 790 -40 241 -91 438
-171 651 -51 138 -67 174 -75 174 -4 0 -44 -30 -90 -67z"/>
<path d="M14686 32949 c-238 -25 -490 -103 -553 -170 -59 -64 -50 -139 26
-220 53 -56 594 -500 916 -752 262 -205 326 -263 376 -340 67 -104 84 -170 84
-337 0 -174 -18 -246 -101 -415 -134 -273 -372 -523 -616 -646 -153 -77 -281
-96 -399 -59 -95 30 -147 64 -334 220 -441 370 -952 773 -1030 813 -53 26 -72
31 -158 34 -119 4 -135 -4 -177 -91 -44 -91 -53 -169 -47 -400 4 -164 10 -223
31 -324 95 -448 336 -890 666 -1222 394 -397 863 -607 1395 -624 291 -9 536
26 795 114 l145 50 1062 -1068 c584 -587 1061 -1070 1060 -1074 -1 -4 -616
-624 -1367 -1379 -751 -754 -1366 -1374 -1368 -1378 -1 -3 574 -582 1279
-1286 l1280 -1280 1368 1374 c752 756 1372 1372 1377 1370 6 -2 1058 -1057
2339 -2344 1280 -1287 2351 -2356 2379 -2376 63 -45 232 -121 329 -148 177
-49 392 -52 568 -7 417 106 729 430 819 855 29 134 25 343 -10 461 -44 155
-155 355 -290 525 -35 44 -1079 1096 -2319 2338 -1241 1242 -2255 2260 -2255
2263 1 4 628 636 1394 1406 l1393 1400 -1282 1281 -1282 1282 -1392 -1399
c-766 -770 -1398 -1397 -1404 -1395 -26 8 -2037 2027 -2080 2087 -57 79 -93
178 -93 257 0 38 11 99 31 165 29 99 31 118 36 320 6 238 -7 370 -53 546 -81
315 -261 620 -511 871 -388 388 -944 649 -1497 702 -125 13 -413 12 -530 0z
m11144 -12489 c172 -33 302 -165 332 -338 31 -180 -62 -356 -230 -435 -63 -30
-74 -32 -177 -32 -99 0 -115 3 -165 27 -202 99 -290 322 -210 531 42 112 167
217 290 243 70 16 95 16 160 4z"/>
<path d="M25309 32800 c-362 -97 -642 -297 -896 -637 -90 -122 -222 -343 -351
-588 -123 -233 -152 -298 -263 -593 -48 -129 -90 -236 -93 -239 -3 -3 -92 79
-198 182 -225 219 -324 301 -423 349 -233 113 -408 53 -700 -244 l-90 -91
1284 -1282 1283 -1282 91 95 c133 140 205 235 251 330 40 83 41 88 41 190 0
189 -47 265 -342 556 l-215 212 59 22 c32 12 163 60 291 106 388 141 540 205
822 345 306 153 491 281 661 456 155 161 258 326 318 511 46 141 56 213 55
387 0 130 -4 177 -22 250 -38 153 -88 271 -166 390 -170 259 -409 435 -730
540 -92 29 -132 36 -299 49 -243 20 -241 20 -368 -14z"/>
<path d="M29206 32413 c13 -73 76 -249 124 -348 285 -590 888 -955 1700 -1027
154 -13 583 -14 618 -1 23 9 22 10 -40 113 -245 408 -629 762 -1068 984 -271
138 -539 224 -855 276 -123 20 -332 39 -438 40 l-48 0 7 -37z"/>
<path d="M10540 32389 c-426 -48 -758 -142 -1079 -306 -138 -70 -335 -198
-456 -294 -108 -86 -293 -267 -387 -379 -125 -149 -293 -409 -275 -426 14 -14
539 -7 687 9 763 87 1313 413 1613 957 67 122 157 367 157 427 0 22 -2 23 -92
22 -51 -1 -127 -5 -168 -10z"/>
<path d="M32246 30683 c140 -368 303 -876 401 -1243 36 -137 105 -411 118
-470 7 -36 23 -108 35 -160 129 -580 232 -1277 279 -1890 6 -74 16 -202 23
-285 20 -242 16 -1436 -5 -1695 -9 -113 -21 -261 -27 -330 -29 -375 -110 -963
-186 -1355 -208 -1072 -524 -2066 -961 -3025 -73 -160 -284 -589 -342 -693
-283 -517 -418 -739 -685 -1137 -1993 -2961 -5098 -4880 -8531 -5269 -93 -11
-258 -27 -365 -35 -268 -22 -275 -22 -214 -24 110 -4 732 55 1054 99 328 45
826 134 1089 195 587 136 1151 301 1586 464 28 10 88 33 135 50 1665 623 3225
1636 4460 2897 812 828 1440 1681 2012 2733 170 312 410 829 553 1190 47 121
69 176 135 355 167 450 352 1097 456 1598 124 598 202 1180 241 1802 24 372
24 1118 0 1490 -94 1483 -418 2846 -997 4195 -87 203 -277 610 -285 610 -2 0
7 -30 21 -67z"/>
<path d="M7715 30573 c-699 -1446 -1112 -3024 -1215 -4653 -30 -463 -23 -1279
15 -1750 48 -586 141 -1215 250 -1684 7 -33 24 -104 36 -156 262 -1142 745
-2332 1367 -3370 1178 -1967 2928 -3581 4997 -4607 127 -63 238 -118 247 -123
80 -44 622 -276 848 -363 1151 -442 2318 -710 3550 -817 320 -28 338 -29 315
-19 -11 4 -108 15 -215 24 -944 79 -1925 294 -2850 625 -63 23 -135 48 -160
57 -25 8 -148 57 -275 108 -616 249 -1187 537 -1760 888 -1366 836 -2584 1974
-3543 3309 -855 1191 -1519 2568 -1921 3988 -84 295 -130 476 -186 725 -68
304 -114 550 -180 960 -36 226 -87 663 -105 910 -39 526 -42 590 -42 1145 0
540 3 620 37 1100 6 80 23 257 45 465 73 694 241 1548 441 2245 100 347 216
700 338 1028 17 45 29 82 27 82 -2 0 -30 -53 -61 -117z"/>
<path d="M33990 30497 c-296 -386 -488 -784 -579 -1204 -44 -201 -56 -328 -56
-573 1 -300 19 -439 92 -709 22 -84 69 -220 78 -229 2 -2 35 29 73 70 415 437
671 886 770 1348 24 114 26 145 27 350 0 197 -3 238 -23 331 -31 145 -74 275
-132 396 -65 137 -167 295 -189 292 -3 0 -31 -32 -61 -72z"/>
<path d="M5894 30453 c-112 -161 -218 -410 -258 -608 -33 -162 -42 -413 -21
-560 73 -500 311 -955 756 -1445 56 -61 105 -108 110 -103 20 20 80 213 113
368 81 370 79 804 -5 1164 -98 421 -292 817 -582 1189 -27 34 -53 62 -57 62
-5 0 -30 -30 -56 -67z"/>
<path d="M30623 29309 c49 -769 570 -1367 1442 -1654 169 -55 405 -114 550
-135 39 -6 81 -14 94 -17 22 -5 23 -4 16 28 -34 159 -176 465 -313 674 -366
560 -921 962 -1598 1158 -66 20 -138 39 -159 43 l-38 7 6 -104z"/>
<path d="M9275 29339 c-140 -39 -323 -103 -435 -151 -701 -300 -1225 -830
-1494 -1511 -46 -117 -74 -212 -64 -222 7 -8 216 32 393 75 748 182 1269 550
1537 1084 59 118 119 295 143 419 19 106 35 279 28 307 -6 24 -18 24 -108 -1z"/>
<path d="M35035 26222 c-782 -524 -1231 -1268 -1295 -2147 -9 -116 -6 -265 5
-265 2 0 64 34 140 75 876 480 1345 1132 1345 1869 0 140 -15 264 -46 390 -41
162 -31 157 -149 78z"/>
<path d="M4841 26168 c-77 -241 -87 -555 -26 -828 114 -511 452 -953 1010
-1325 162 -108 425 -256 438 -248 17 10 0 355 -23 492 -83 485 -264 897 -562
1274 -105 133 -345 370 -480 475 -128 99 -307 222 -324 222 -7 0 -21 -28 -33
-62z"/>
<path d="M31295 26168 c-68 -228 -64 -574 10 -846 138 -510 537 -970 1140
-1314 96 -54 330 -172 364 -183 l24 -7 -6 138 c-21 510 -238 1066 -587 1504
-165 206 -421 440 -660 600 -82 55 -256 160 -265 160 -2 0 -11 -24 -20 -52z"/>
<path d="M8584 26111 c-365 -217 -689 -511 -921 -837 -196 -275 -344 -604
-423 -939 -50 -211 -88 -565 -61 -565 21 0 255 116 391 195 252 145 451 294
625 469 374 376 565 811 565 1287 0 156 -42 427 -69 443 -4 3 -53 -21 -107
-53z"/>
<path d="M14859 23453 c-135 -140 -201 -223 -246 -310 -37 -74 -38 -79 -38
-182 0 -100 2 -110 35 -181 53 -113 127 -205 346 -429 109 -112 200 -206 202
-210 1 -4 -98 -45 -220 -91 -123 -46 -275 -107 -340 -135 -138 -62 -507 -259
-646 -346 -491 -306 -741 -616 -854 -1059 l-29 -115 16 -210 c16 -193 20 -219
56 -328 71 -217 170 -386 313 -535 399 -418 1003 -501 1502 -207 270 160 488
420 696 832 158 312 230 483 400 963 44 124 83 228 87 233 4 4 90 -77 192
-180 101 -104 213 -210 248 -237 142 -109 277 -150 408 -122 131 27 249 104
430 280 l104 101 -1284 1283 -1283 1283 -95 -98z"/>
<path d="M30931 23182 c-47 -103 -77 -200 -107 -340 -24 -114 -27 -148 -27
-327 0 -180 3 -213 27 -328 107 -504 414 -957 926 -1366 172 -137 290 -218
290 -198 0 1 7 57 15 122 19 154 19 444 0 606 -72 611 -336 1158 -782 1620
-95 98 -293 279 -305 279 -3 0 -19 -31 -37 -68z"/>
<path d="M8940 23118 c-582 -504 -924 -1148 -995 -1873 -19 -187 -19 -321 0
-500 21 -207 10 -199 140 -104 663 480 1047 1040 1116 1627 26 215 -2 512 -66
707 -22 70 -90 225 -97 225 -2 0 -46 -37 -98 -82z"/>
<path d="M34930 22179 c-510 -101 -935 -291 -1304 -582 -120 -95 -325 -298
-420 -417 -145 -181 -301 -444 -380 -639 -39 -96 -39 -95 52 -87 199 18 459
62 643 110 760 198 1280 656 1463 1289 40 139 70 349 49 346 -5 -1 -51 -10
-103 -20z"/>
<path d="M4965 22140 c-2 -4 2 -54 10 -111 47 -359 208 -681 475 -950 327
-328 765 -532 1360 -633 149 -25 388 -51 397 -43 13 14 -132 321 -210 446
-367 585 -899 989 -1570 1192 -196 59 -453 114 -462 99z"/>
<path d="M29893 20879 c-108 -142 -194 -304 -252 -477 -191 -573 -65 -1204
367 -1832 105 -154 336 -439 361 -448 16 -6 89 193 131 358 67 262 95 611 71
894 -34 401 -159 794 -371 1161 -59 104 -193 307 -243 369 l-23 28 -41 -53z"/>
<path d="M10033 20833 c-50 -64 -167 -243 -227 -347 -282 -489 -405 -1001
-376 -1553 13 -246 53 -451 132 -688 46 -139 65 -178 79 -169 20 12 195 221
278 333 149 200 309 475 372 640 74 194 105 299 136 466 28 154 25 471 -5 622
-51 248 -153 483 -286 659 -28 37 -56 69 -62 71 -7 2 -25 -13 -41 -34z"/>
<path d="M28049 18930 c-535 -597 -570 -1443 -95 -2297 82 -147 229 -377 284
-443 l28 -33 31 54 c135 240 243 605 278 944 55 528 -47 1061 -299 1564 -55
109 -153 281 -161 281 -2 0 -32 -31 -66 -70z"/>
<path d="M11830 18854 c-436 -738 -532 -1596 -265 -2363 50 -143 160 -381 176
-381 3 0 40 49 82 108 529 753 688 1482 462 2114 -39 111 -116 262 -185 366
-60 89 -193 242 -211 242 -4 0 -31 -39 -59 -86z"/>
<path d="M33030 18684 c-107 -13 -308 -46 -376 -63 -482 -116 -907 -345 -1253
-676 -87 -82 -211 -222 -211 -236 0 -12 126 -43 325 -79 385 -70 795 -70 1113
0 185 41 407 127 555 216 220 133 437 346 567 559 44 72 124 234 118 240 -1 1
-55 10 -118 20 -86 14 -187 19 -400 20 -157 2 -301 1 -320 -1z"/>
<path d="M6520 18639 c-133 -7 -369 -35 -378 -44 -8 -8 46 -127 98 -215 151
-253 372 -466 634 -611 156 -86 306 -142 501 -188 373 -87 864 -69 1354 48 46
11 86 22 89 25 8 8 -82 111 -191 219 -543 535 -1304 812 -2107 766z"/>
<path d="M26040 17366 c-164 -131 -319 -327 -420 -531 -105 -214 -152 -372
-176 -600 -18 -166 -17 -250 1 -421 30 -281 100 -542 227 -839 78 -183 187
-397 199 -390 5 3 42 56 83 118 209 315 343 670 408 1087 31 194 30 565 0 762
-38 240 -82 416 -159 627 -54 150 -89 231 -100 231 -4 0 -33 -20 -63 -44z"/>
<path d="M13842 17233 c-156 -397 -222 -731 -222 -1116 1 -407 77 -758 249
-1135 59 -130 152 -292 226 -395 l42 -57 16 23 c26 40 122 237 174 357 101
232 183 505 219 725 22 137 30 432 14 564 -40 351 -180 673 -407 936 -73 84
-229 225 -249 225 -7 0 -35 -57 -62 -127z"/>
<path d="M30330 15990 c-422 -42 -846 -187 -1190 -408 -100 -64 -200 -140
-200 -151 0 -4 57 -35 128 -69 900 -428 1703 -429 2305 0 113 80 272 233 341
328 l48 65 -43 19 c-161 70 -498 163 -719 196 -152 24 -524 35 -670 20z"/>
<path d="M9110 15935 c-232 -29 -466 -83 -675 -156 -134 -46 -185 -67 -185
-75 0 -16 74 -108 159 -196 207 -216 480 -378 765 -453 301 -81 641 -85 981
-14 203 43 492 138 678 223 187 85 237 110 237 116 0 10 -128 104 -223 164
-307 192 -641 315 -1027 378 -166 27 -543 34 -710 13z"/>
<path d="M27140 14074 c-194 -23 -350 -54 -510 -101 -115 -34 -240 -82 -240
-93 0 -11 122 -119 250 -222 494 -396 1019 -609 1500 -608 339 1 695 114 966
305 99 71 99 64 -11 146 -317 234 -696 415 -1061 504 -217 54 -330 67 -604 70
-140 2 -271 1 -290 -1z"/>
<path d="M12500 14033 c-103 -5 -335 -35 -446 -59 -384 -82 -771 -255 -1103
-494 -120 -87 -131 -95 -131 -104 0 -24 192 -149 325 -212 130 -62 304 -117
447 -141 140 -24 416 -24 555 0 421 71 822 266 1233 597 100 81 233 199 238
211 2 4 -10 11 -25 17 -15 6 -59 22 -98 36 -281 104 -671 162 -995 149z"/>
<path d="M18193 13023 c9 -2 25 -2 35 0 9 3 1 5 -18 5 -19 0 -27 -2 -17 -5z"/>
<path d="M18378 13013 c6 -2 18 -2 25 0 6 3 1 5 -13 5 -14 0 -19 -2 -12 -5z"/>
<path d="M18438 13013 c7 -3 16 -2 19 1 4 3 -2 6 -13 5 -11 0 -14 -3 -6 -6z"/>
<path d="M18488 13013 c7 -3 16 -2 19 1 4 3 -2 6 -13 5 -11 0 -14 -3 -6 -6z"/>
<path d="M12275 11134 c-275 -39 -475 -133 -646 -303 -233 -232 -352 -573
-336 -961 13 -333 124 -608 326 -811 125 -125 265 -205 449 -257 92 -26 108
-27 312 -26 200 0 222 2 313 27 428 115 699 428 782 903 22 121 24 375 6 489
-81 499 -394 842 -846 925 -63 12 -309 21 -360 14z m244 -425 c144 -33 281
-165 354 -344 92 -225 96 -559 10 -798 -104 -288 -330 -431 -595 -376 -129 27
-251 119 -330 250 -48 79 -93 218 -109 335 -14 110 -7 332 15 431 82 378 338
573 655 502z"/>
<path d="M17535 11119 c-241 -32 -479 -133 -646 -273 -189 -158 -314 -372
-372 -636 -29 -130 -31 -443 -4 -569 97 -453 385 -740 847 -844 83 -19 126
-22 335 -22 259 0 347 11 507 61 l77 25 -6 32 c-4 18 -21 109 -38 202 -24 130
-34 170 -46 168 -7 0 -50 -11 -94 -22 -227 -60 -488 -52 -660 21 -226 95 -368
305 -394 584 -33 360 104 653 364 779 106 52 175 67 322 72 155 6 260 -7 382
-47 47 -15 87 -27 89 -25 2 1 27 92 56 201 39 146 50 202 42 211 -15 16 -133
51 -236 69 -102 19 -425 27 -525 13z"/>
<path d="M13840 9955 l0 -1145 258 0 257 0 0 457 0 458 413 3 412 2 0 210 0
210 -412 2 -413 3 0 255 0 255 440 5 440 5 3 213 2 212 -700 0 -700 0 0 -1145z"/>
<path d="M15640 9955 l0 -1145 255 0 255 0 0 1145 0 1145 -255 0 -255 0 0
-1145z"/>
<path d="M18630 9955 l0 -1145 260 0 260 0 0 1145 0 1145 -260 0 -260 0 0
-1145z"/>
<path d="M19600 9955 l0 -1145 236 0 236 0 -6 773 c-3 424 -9 806 -12 847 -4
46 -2 71 3 65 5 -5 29 -55 52 -110 84 -194 246 -506 539 -1037 l297 -537 278
-1 277 0 -2 1143 -3 1142 -237 3 -238 2 0 -495 c0 -482 11 -846 30 -1029 5
-50 8 -91 7 -93 -2 -1 -34 68 -72 155 -113 261 -271 564 -532 1022 l-249 435
-302 3 -302 2 0 -1145z"/>
<path d="M22446 10988 c-19 -62 -48 -158 -64 -213 -28 -92 -133 -437 -472
-1547 l-127 -418 268 0 267 0 11 33 c6 17 40 140 76 272 36 132 68 248 71 258
5 16 30 17 334 17 304 0 329 -1 334 -17 36 -118 166 -555 166 -558 0 -3 128
-5 284 -5 l284 0 -29 93 c-37 114 -399 1275 -563 1802 l-121 390 -342 3 -342
2 -35 -112z m399 -440 c21 -84 78 -289 126 -456 49 -166 89 -304 89 -307 0 -3
-112 -5 -250 -5 -137 0 -250 2 -250 5 0 3 21 78 46 168 83 297 131 481 160
615 15 72 31 132 35 132 3 0 23 -69 44 -152z"/>
<path d="M26728 10425 c-286 -54 -495 -241 -586 -525 -32 -98 -42 -172 -42
-300 0 -262 72 -452 230 -610 96 -96 198 -155 325 -187 104 -26 323 -23 430 6
264 71 450 261 526 536 31 113 38 358 14 476 -46 229 -178 423 -357 522 -144
81 -368 115 -540 82z m289 -311 c63 -30 142 -114 176 -187 46 -97 60 -171 60
-317 0 -150 -14 -221 -64 -327 -117 -246 -426 -284 -593 -73 -99 125 -139 371
-95 583 26 121 111 256 194 307 88 54 226 61 322 14z"/>
<path d="M24695 10410 c-44 -4 -104 -10 -132 -15 l-53 -7 0 -788 0 -788 68 -9
c37 -4 177 -8 312 -8 271 0 358 11 514 64 131 45 210 93 301 185 66 66 89 99
127 176 140 288 125 658 -38 887 -118 166 -315 271 -569 302 -98 12 -401 12
-530 1z m477 -281 c124 -26 241 -104 294 -194 54 -93 67 -150 68 -300 1 -109
-3 -153 -18 -200 -52 -171 -149 -275 -310 -331 -55 -20 -208 -35 -278 -27
l-58 6 0 523 0 523 23 4 c47 9 229 6 279 -4z"/>
<path d="M22668 7860 c-680 -61 -1196 -411 -1478 -1001 -126 -264 -184 -543
-184 -884 -1 -554 173 -1013 514 -1355 322 -323 756 -489 1275 -488 883 2
1534 462 1759 1246 66 227 80 344 80 642 0 285 -8 363 -61 565 -119 455 -393
825 -776 1046 -178 103 -407 180 -637 213 -135 20 -368 27 -492 16z m363 -669
c291 -75 511 -303 625 -649 130 -397 100 -921 -73 -1267 -124 -247 -306 -402
-545 -467 -116 -32 -307 -31 -426 0 -443 119 -702 558 -702 1190 0 622 268
1078 700 1191 105 28 317 29 421 2z"/>
<path d="M12175 7849 c-287 -27 -561 -118 -769 -257 -87 -58 -219 -187 -273
-267 -192 -284 -224 -639 -84 -930 144 -302 442 -515 988 -706 354 -124 502
-214 575 -351 20 -37 23 -58 23 -143 0 -89 -3 -106 -27 -150 -51 -97 -159
-175 -293 -209 -287 -75 -752 -12 -1136 154 l-87 37 -10 -36 c-6 -20 -45 -170
-88 -335 -63 -246 -74 -300 -63 -307 42 -27 243 -97 374 -130 503 -126 1024
-116 1439 28 407 141 677 429 753 803 19 95 21 292 4 389 -35 199 -128 371
-277 512 -172 162 -360 264 -769 415 -482 178 -615 280 -617 473 -1 130 75
229 226 296 227 100 717 58 1051 -90 30 -13 56 -21 59 -17 2 4 45 150 97 325
77 265 90 320 78 328 -28 18 -171 69 -262 94 -260 70 -629 100 -912 74z"/>
<path d="M18546 7820 c-282 -13 -688 -48 -748 -66 -17 -5 -18 -98 -18 -1779
l0 -1773 43 -6 c295 -42 955 -61 1287 -36 688 51 1091 222 1318 557 252 372
205 877 -110 1168 -109 101 -267 191 -405 231 -32 9 -62 19 -66 21 -5 3 49 34
120 68 209 103 335 220 419 390 60 122 77 208 71 361 -7 182 -60 319 -177 459
-133 161 -401 299 -696 360 -204 42 -660 62 -1038 45z m643 -605 c190 -31 319
-112 377 -237 26 -56 29 -74 29 -163 0 -88 -4 -107 -27 -158 -54 -115 -176
-203 -344 -247 -89 -23 -287 -40 -471 -40 l-123 0 0 419 0 420 53 5 c28 3 66
8 82 9 87 11 339 5 424 -8z m-7 -1449 c296 -54 466 -194 500 -411 24 -154 -25
-311 -129 -412 -74 -72 -205 -135 -343 -164 -91 -19 -135 -22 -331 -22 -125 0
-231 3 -238 7 -8 5 -11 148 -11 518 l0 511 233 -6 c147 -3 264 -11 319 -21z"/>
<path d="M25979 7820 c-283 -11 -659 -44 -756 -65 l-23 -5 0 -1780 0 -1780
425 0 425 0 0 711 0 711 213 -4 c229 -6 286 -16 379 -71 96 -56 183 -179 236
-332 11 -33 43 -152 72 -265 81 -325 144 -537 202 -677 l30 -73 440 0 c416 0
440 1 432 18 -29 64 -101 305 -200 667 -64 231 -133 464 -154 518 -94 233
-225 392 -390 469 -46 21 -66 48 -37 48 25 0 172 78 245 129 215 153 354 367
392 604 18 108 8 308 -20 417 -111 429 -481 680 -1102 745 -183 19 -552 26
-809 15z m716 -634 c215 -62 338 -193 366 -392 31 -217 -75 -413 -274 -508
-136 -65 -269 -85 -564 -86 l-173 0 0 494 0 495 48 6 c26 3 54 8 62 10 8 2
119 2 245 1 181 -3 243 -7 290 -20z"/>
<path d="M14975 7788 c-2 -7 -20 -62 -39 -123 -19 -60 -105 -330 -191 -600
-86 -269 -183 -573 -215 -675 -32 -102 -144 -453 -249 -780 -104 -327 -247
-775 -316 -995 -70 -220 -130 -405 -132 -412 -4 -11 81 -13 438 -11 l444 3 26
90 c14 50 75 258 134 463 l108 372 541 0 542 0 35 -117 c20 -65 85 -274 145
-465 l109 -348 463 0 c254 0 462 4 462 9 0 4 -15 55 -34 112 -19 57 -98 300
-176 539 -78 239 -175 539 -217 665 -41 127 -111 340 -155 475 -44 135 -86
263 -93 285 -8 22 -78 236 -155 475 -78 239 -177 543 -220 675 -44 132 -89
270 -101 308 l-22 67 -564 0 c-442 0 -565 -3 -568 -12z m569 -710 c65 -256
132 -491 256 -891 72 -232 133 -430 136 -439 5 -17 -19 -18 -411 -18 l-417 0
6 23 c3 12 55 191 116 397 61 206 148 525 193 707 45 183 84 333 87 333 3 0
18 -51 34 -112z"/>
</g>
</svg>
